<svg width="33" height="33" viewBox="0 0 33 33" fill="none" xmlns="http://www.w3.org/2000/svg">
<path d="M31.837 20.3429C29.7 28.9143 21.0186 34.1307 12.4462 31.9933C3.87727 29.8563 -1.33917 21.1744 0.798806 12.6035C2.93478 4.03104 11.6162 -1.1859 20.1861 0.951075C28.758 3.08805 33.974 11.771 31.837 20.3429Z" fill="#F7931A"/>
<path d="M23.3696 14.1929C23.6881 12.064 22.0671 10.9195 19.8506 10.156L20.5696 7.27201L18.8141 6.83451L18.1141 9.64248C17.6526 9.52749 17.1786 9.41899 16.7076 9.31149L17.4126 6.48502L15.6581 6.04752L14.9387 8.93049C14.5567 8.84349 14.1817 8.75749 13.8177 8.66699L13.8197 8.65799L11.3987 8.0535L10.9317 9.92848C10.9317 9.92848 12.2342 10.227 12.2067 10.2455C12.9177 10.423 13.0462 10.8935 13.0247 11.2665L12.2057 14.5519C12.2547 14.5644 12.3182 14.5824 12.3882 14.6104C12.3297 14.5959 12.2672 14.5799 12.2027 14.5644L11.0547 19.1669C10.9677 19.3829 10.7472 19.7069 10.2502 19.5839C10.2677 19.6094 8.97421 19.2654 8.97421 19.2654L8.10272 21.2749L10.3872 21.8444C10.8122 21.9509 11.2287 22.0624 11.6387 22.1674L10.9122 25.0843L12.6657 25.5218L13.3852 22.6358C13.8642 22.7658 14.3292 22.8858 14.7842 22.9988L14.0672 25.8713L15.8226 26.3088L16.5491 23.3973C19.5426 23.9638 21.7936 23.7353 22.7411 21.0279C23.5046 18.8479 22.7031 17.5904 21.1281 16.7704C22.2751 16.5059 23.1391 15.7514 23.3696 14.1929ZM19.3586 19.8174C18.8161 21.9974 15.1456 20.8189 13.9557 20.5234L14.9196 16.6589C16.1096 16.9559 19.9256 17.5439 19.3586 19.8174ZM19.9016 14.1614C19.4066 16.1444 16.3516 15.1369 15.3606 14.8899L16.2346 11.385C17.2256 11.632 20.4171 12.093 19.9016 14.1614Z" fill="white"/>
</svg>
