<svg width="264" height="264" viewBox="0 0 264 264" fill="none" xmlns="http://www.w3.org/2000/svg">
<path d="M259.751 178.93L92.7439 262.166C89.5432 263.764 85.6776 262.461 84.0772 259.291L0.684549 92.5738C-0.915841 89.379 0.389088 85.5207 3.56525 83.9234L170.572 0.687648C173.773 -0.909731 177.638 0.39278 179.239 3.56296L262.632 170.255C264.232 173.45 262.927 177.333 259.751 178.93Z" fill="#E5A431"/>
<path d="M170.006 223.633L259.726 178.906C262.927 177.309 264.207 173.45 262.607 170.256L179.214 3.563C177.614 0.368242 173.748 -0.909694 170.547 0.687685L50.4689 60.528L170.006 223.633Z" fill="#D39024"/>
<path d="M189.826 121.695L88.9272 171.976C85.751 173.549 81.8362 172.271 80.2604 169.076L76.7396 162.023C75.1638 158.853 76.4441 154.945 79.6449 153.373L180.543 103.092C183.719 101.495 187.634 102.797 189.21 105.992L192.731 113.045C194.307 116.215 193.002 120.098 189.826 121.695Z" fill="#F0E345"/>
<path d="M189.185 105.992C187.61 102.822 183.695 101.519 180.519 103.092L108.132 139.168L120.59 156.174L189.801 121.671C192.977 120.073 194.282 116.19 192.706 113.02L189.185 105.992Z" fill="#E2D134"/>
<path d="M203.885 149.809L102.987 200.09C99.8106 201.662 95.8958 200.385 94.32 197.19L90.7992 190.137C89.1988 186.967 90.5037 183.059 93.7045 181.486L194.603 131.206C197.779 129.633 201.694 130.911 203.27 134.106L206.791 141.159C208.366 144.329 207.061 148.212 203.885 149.809Z" fill="#F0E345"/>
<path d="M203.245 134.106C201.669 130.936 197.754 129.633 194.578 131.206L126.968 164.898L139.426 181.904L203.86 149.785C207.037 148.212 208.341 144.304 206.766 141.134L203.245 134.106Z" fill="#E2D134"/>
<path d="M187.708 195.175L149.028 214.466C144.67 216.629 139.327 214.859 137.16 210.51C134.994 206.16 136.767 200.827 141.125 198.664L179.805 179.373C184.163 177.21 189.506 178.98 191.672 183.33C193.864 187.655 192.066 192.988 187.708 195.175Z" fill="#C6514E"/>
<path d="M179.805 179.373L148.881 194.782L159.468 209.256L187.709 195.175C192.067 193.012 193.84 187.679 191.673 183.33C189.506 178.98 184.163 177.186 179.805 179.373Z" fill="#AA3C3C"/>
<path d="M124.835 116.177C141.599 107.374 148.039 86.6735 139.22 69.9414C130.4 53.2092 109.661 46.7812 92.8973 55.584C76.1336 64.3869 69.6935 85.087 78.5129 101.819C87.3323 118.551 108.072 124.979 124.835 116.177Z" fill="#4B68A3"/>
<path d="M93.5319 55.2198C78.5621 62.6906 71.4465 79.5737 75.8291 95.0805L90.0356 114.47C99.9088 120.933 112.86 122.138 124.185 116.485C141.125 108.031 148.019 87.4623 139.549 70.5546C131.079 53.647 110.496 46.766 93.5319 55.2198Z" fill="#3D5A89"/>
<path d="M120 70.6285C124.136 78.9103 120.763 88.9614 112.49 93.09C104.218 97.2186 94.1228 93.8518 89.9864 85.5946C85.85 77.3128 89.2231 67.2616 97.4959 63.133C105.769 58.9798 115.863 62.3467 120 70.6285Z" fill="#519A9E"/>
<path d="M124.186 116.485C132.705 112.234 138.688 104.91 141.445 96.5304C133.123 92.9179 123.299 92.8688 114.559 97.2185C105.794 101.593 99.9583 109.432 97.8408 118.255C106.212 121.105 115.667 120.737 124.186 116.485Z" fill="#519A9E"/>
</svg>
