<svg width="298" height="298" viewBox="0 0 298 298" fill="none" xmlns="http://www.w3.org/2000/svg">
<path d="M203.492 245.245L57.8576 212.449C55.0653 211.822 53.3266 209.061 53.9365 206.286L86.4885 60.7522C87.1108 57.9622 89.8701 56.2292 92.6471 56.844L238.281 89.6397C241.073 90.267 242.812 93.0285 242.202 95.8032L209.663 241.322C209.04 244.112 206.269 245.86 203.492 245.245Z" fill="#E5A431"/>
<path d="M125.245 227.605L203.488 245.218C206.281 245.845 209.025 244.099 209.647 241.309L242.187 95.7909C242.809 93.0008 241.058 90.2546 238.265 89.6273L133.557 66.043L125.245 227.605Z" fill="#D39024"/>
<path d="M189.059 174.41L101.076 154.592C98.3118 153.962 96.53 151.191 97.1676 148.414L98.5492 142.26C99.1743 139.498 101.943 137.722 104.723 138.364L192.705 158.183C195.482 158.797 197.252 161.584 196.614 164.361L195.233 170.515C194.607 173.277 191.836 175.025 189.059 174.41Z" fill="#F0E345"/>
<path d="M196.599 164.349C197.224 161.586 195.455 158.8 192.69 158.17L129.568 143.954L128.698 160.797L189.056 174.383C191.833 174.997 194.604 173.249 195.23 170.487L196.599 164.349Z" fill="#E2D134"/>
<path d="M183.567 198.95L95.585 179.132C92.8205 178.502 91.0387 175.731 91.6763 172.953L93.0579 166.8C93.6678 164.025 96.4519 162.262 99.2317 162.904L187.214 182.722C189.979 183.352 191.76 186.124 191.123 188.901L189.741 195.054C189.116 197.817 186.344 199.565 183.567 198.95Z" fill="#F0E345"/>
<path d="M191.107 188.889C191.733 186.126 189.963 183.34 187.199 182.71L128.243 169.43L127.373 186.273L183.564 198.922C186.329 199.552 189.113 197.789 189.738 195.027L191.107 188.889Z" fill="#E2D134"/>
<path d="M150.606 218.906L116.869 211.318C113.074 210.457 110.655 206.659 111.51 202.866C112.365 199.074 116.16 196.663 119.955 197.525L153.692 205.112C157.487 205.974 159.906 209.771 159.051 213.564C158.224 217.354 154.414 219.752 150.606 218.906Z" fill="#C6514E"/>
<path d="M153.692 205.112L126.728 199.037L125.977 213.364L150.607 218.906C154.402 219.768 158.197 217.357 159.052 213.564C159.907 209.772 157.5 205.959 153.692 205.112Z" fill="#AA3C3C"/>
<path d="M151.547 138.139C166.391 141.153 180.847 131.572 183.835 116.738C186.823 101.905 177.212 87.4363 162.367 84.4219C147.522 81.4077 133.066 90.9892 130.078 105.823C127.09 120.656 136.702 135.125 151.547 138.139Z" fill="#4B68A3"/>
<path d="M162.945 84.5171C149.886 81.5836 136.94 88.4566 131.82 100.288L130.829 119.492C133.685 128.491 141.107 135.783 150.988 138.003C165.765 141.322 180.437 132.051 183.73 117.286C187.024 102.52 177.737 87.8491 162.945 84.5171Z" fill="#3D5A89"/>
<path d="M171.569 107.45C169.949 114.677 162.777 119.205 155.56 117.583C148.343 115.962 143.785 108.772 145.393 101.561C147.014 94.3344 154.186 89.8064 161.403 91.4276C168.632 93.0335 173.19 100.224 171.569 107.45Z" fill="#519A9E"/>
<path d="M150.987 138.003C158.419 139.672 165.831 138.155 171.776 134.352C168.442 127.905 162.375 122.91 154.756 121.189C147.109 119.472 139.528 121.384 133.756 125.784C137.507 131.783 143.556 136.333 150.987 138.003Z" fill="#519A9E"/>
<path opacity="0.6" d="M149 273C217.483 273 273 217.483 273 149C273 80.5167 217.483 25 149 25C80.5167 25 25 80.5167 25 149C25 217.483 80.5167 273 149 273Z" fill="url(#paint0_linear_33_34)" fill-opacity="0.6" stroke="white" stroke-width="2"/>
<defs>
<linearGradient id="paint0_linear_33_34" x1="214.148" y1="39.8898" x2="73.2585" y2="227.39" gradientUnits="userSpaceOnUse">
<stop offset="0.197973" stop-color="white" stop-opacity="0.32"/>
<stop offset="1" stop-color="white" stop-opacity="0"/>
</linearGradient>
</defs>
</svg>
