<svg width="176" height="198" viewBox="0 0 176 198" fill="none" xmlns="http://www.w3.org/2000/svg">
<g clip-path="url(#clip0_17_40)">
<path d="M171.677 85.512L64.3029 196.051C61.9639 198.459 58.1229 198.508 55.7347 196.174L13.0658 154.887C10.6529 152.553 10.6036 148.719 12.9427 146.335L120.317 35.7967C122.656 33.3883 126.497 33.3392 128.885 35.6738L171.554 76.9599C173.967 79.27 174.016 83.1037 171.677 85.512Z" fill="#65B2B9"/>
<path d="M128.885 35.6492C126.472 33.3145 122.631 33.3883 120.317 35.772L85.2559 71.8728L128.122 130.361L171.702 85.4874C174.041 83.079 173.967 79.2453 171.578 76.9353L128.885 35.6492Z" fill="#519A9E"/>
<path d="M53.0016 184.156L25.204 157.247C28.9218 153.413 28.8234 147.294 24.9824 143.583L117.928 47.8877C121.769 51.5985 127.9 51.5002 131.618 47.6665L159.415 74.5762C155.697 78.4099 155.796 84.5291 159.637 88.2399L66.6911 183.935C62.8501 180.224 56.7194 180.323 53.0016 184.156Z" fill="#4B68A3"/>
<path d="M117.928 47.8877L89.269 77.4023L124.059 124.881L159.637 88.2399C155.796 84.5291 155.698 78.4099 159.415 74.5762L131.618 47.6665C127.9 51.5002 121.769 51.5985 117.928 47.8877Z" fill="#3D5A89"/>
<path d="M108.889 131.96C116.49 124.135 115.236 110.615 106.088 101.763C96.9394 92.91 83.3615 92.0772 75.7606 99.9024C68.1598 107.728 69.4142 121.248 78.5625 130.1C87.7108 138.953 101.289 139.786 108.889 131.96Z" fill="#65B2B9"/>
<path d="M135.779 67.2284L111.872 91.828C111.355 92.3687 110.493 92.3687 109.976 91.8526C109.434 91.3366 109.434 90.4764 109.951 89.9603L133.859 65.3607C134.376 64.8201 135.237 64.8201 135.754 65.3361C136.296 65.8522 136.296 66.6878 135.779 67.2284Z" fill="#E2D134"/>
<path d="M141.663 72.9048L117.756 97.5044C117.239 98.0451 116.377 98.0451 115.86 97.529C115.318 97.0129 115.318 96.1528 115.835 95.6367L139.743 71.0371C140.26 70.4964 141.122 70.4964 141.639 71.0125C142.156 71.5286 142.18 72.3887 141.663 72.9048Z" fill="#E2D134"/>
<path d="M68.7839 136.186L44.8765 160.785C44.3595 161.326 43.4977 161.326 42.9807 160.81C42.439 160.294 42.439 159.434 42.9561 158.918L66.8634 134.318C67.3805 133.777 68.2422 133.777 68.7593 134.293C69.3009 134.81 69.301 135.67 68.7839 136.186Z" fill="#F0E345"/>
<path d="M74.6687 141.887L50.7613 166.487C50.2442 167.027 49.3825 167.027 48.8654 166.511C48.3238 165.995 48.3238 165.135 48.8408 164.619L72.7482 140.019C73.2653 139.479 74.127 139.479 74.644 139.995C75.1611 140.486 75.1857 141.347 74.6687 141.887Z" fill="#F0E345"/>
<path d="M83.1873 105.418L84.0491 106.253C86.0927 104.287 88.7518 103.059 89.5397 103.82C90.1306 104.386 90.7707 106.327 90.3029 106.794C89.9582 107.138 88.4809 107.261 86.7821 108.907L91.3616 113.331C94.3408 112.028 97.8863 110.382 101.235 113.626C104.657 116.943 104.189 120.679 101.924 123.554L103.081 124.685C103.525 125.127 103.525 125.496 103.131 125.889C102.663 126.356 102.294 126.405 101.85 125.963L100.718 124.857C97.4678 128.002 94.3654 128.838 93.5776 128.076C92.9128 127.437 92.4942 125.324 92.9128 124.906C93.3067 124.513 95.8674 124.316 97.9848 122.203L92.9867 117.361C90.0075 118.762 86.462 120.507 82.9904 117.14C79.9865 114.24 80.5282 110.529 82.8426 107.556L81.9563 106.696C81.5131 106.253 81.5131 105.885 81.9317 105.467C82.3748 105.025 82.7441 104.975 83.1873 105.418ZM85.8957 113.798C86.8806 114.756 88.1362 114.609 89.5643 114.093L85.6741 110.308C84.7877 111.783 85.0586 112.962 85.8957 113.798ZM99.0189 120.728C99.6344 119.524 99.5852 118.148 98.4772 117.066C97.4431 116.059 96.1628 116.133 94.8086 116.624L99.0189 120.728Z" fill="#F0E345"/>
<path d="M172.551 62.9024L38.4135 138.962C35.5081 140.609 31.7903 139.601 30.1407 136.701L0.791981 85.1183C-0.857652 82.2184 0.151858 78.5075 3.05718 76.861L137.195 0.801242C140.1 -0.845287 143.818 0.162286 145.467 3.06214L174.816 54.6452C176.49 57.545 175.481 61.2559 172.551 62.9024Z" fill="#65B2B9"/>
<path d="M174.841 54.6453L145.492 3.06232C143.842 0.162462 140.149 -0.869686 137.219 0.801418L74.3853 36.4352L116.906 94.4815L172.551 62.9272C175.481 61.2561 176.49 57.5452 174.841 54.6453Z" fill="#519A9E"/>
<path d="M30.9038 124.365L11.7729 90.7707C16.4264 88.1411 18.0514 82.2431 15.4169 77.5985L131.531 11.7373C134.166 16.382 140.075 18.0039 144.728 15.3744L163.859 48.9685C159.206 51.598 157.581 57.496 160.215 62.1407L44.1008 127.977C41.4664 123.357 35.5572 121.735 30.9038 124.365Z" fill="#4B68A3"/>
<path d="M131.532 11.7373L78.374 41.8663L112.893 88.9767L160.216 62.1407C157.581 57.496 159.206 51.598 163.86 48.9685L144.729 15.3744C140.075 18.0039 134.166 16.382 131.532 11.7373Z" fill="#3D5A89"/>
<path d="M99.2023 89.9224C108.697 84.5395 111.292 71.2118 104.999 60.1541C98.7058 49.0963 85.9078 44.4959 76.4135 49.8788C66.9193 55.2616 64.3241 68.5893 70.617 79.6471C76.91 90.7048 89.708 95.3052 99.2023 89.9224Z" fill="#65B2B9"/>
<path d="M82.6826 47.7642L106.935 80.8668C109.397 74.6984 108.904 66.9819 105.014 60.1255C100.041 51.3522 90.9554 46.6583 82.6826 47.7642Z" fill="#519A9E"/>
<path d="M143.227 35.3048L113.386 52.2371C112.746 52.6057 111.909 52.3845 111.539 51.721C111.17 51.082 111.391 50.2465 112.056 49.8778L141.897 32.9456C142.538 32.577 143.375 32.7982 143.744 33.4617C144.113 34.1252 143.867 34.9362 143.227 35.3048Z" fill="#E2D134"/>
<path d="M147.265 42.4069L117.423 59.3391C116.783 59.7078 115.946 59.4866 115.577 58.823C115.208 58.1841 115.429 57.3485 116.094 56.9799L145.935 40.0477C146.575 39.6791 147.412 39.9003 147.782 40.5638C148.151 41.2273 147.929 42.0383 147.265 42.4069Z" fill="#E2D134"/>
<path d="M59.5385 82.7594L29.6974 99.6916C29.0572 100.06 28.2201 99.8391 27.8508 99.1756C27.4814 98.5366 27.703 97.7011 28.3678 97.3324L58.2089 80.4002C58.8491 80.0316 59.6862 80.2528 60.0555 80.9163C60.4249 81.5553 60.2033 82.3908 59.5385 82.7594Z" fill="#F0E345"/>
<path d="M63.601 89.8615L33.7599 106.794C33.1197 107.162 32.2826 106.941 31.9133 106.277C31.5439 105.639 31.7655 104.803 32.4303 104.434L62.2714 87.5023C62.9116 87.1336 63.7487 87.3548 64.118 88.0183C64.4627 88.6573 64.2412 89.4928 63.601 89.8615Z" fill="#F0E345"/>
<path d="M82.0179 57.2504L82.6088 58.2826C85.1202 56.9802 88.0255 56.5378 88.5672 57.4717C88.9611 58.1598 89.035 60.2241 88.4687 60.5435C88.0501 60.7893 86.5728 60.4944 84.5047 61.5757L87.6562 67.1051C90.8816 66.6873 94.7472 66.0975 97.037 70.1524C99.4006 74.281 97.8987 77.7461 94.9195 79.8841L95.7074 81.2849C96.0275 81.8255 95.9044 82.1941 95.4119 82.4644C94.821 82.7839 94.4763 82.7102 94.1563 82.1696L93.3684 80.7934C89.3797 82.9068 86.1543 82.8331 85.6126 81.8993C85.1695 81.1129 85.3418 78.9502 85.8588 78.6553C86.3513 78.385 88.8626 78.9256 91.4725 77.4757L88.0255 71.4303C84.7755 71.9463 80.8853 72.6344 78.4971 68.4321C76.4289 64.8196 78.0046 61.4037 81.0577 59.1673L80.4421 58.1106C80.1221 57.5699 80.2452 57.2013 80.7622 56.9064C81.3531 56.6361 81.7224 56.7098 82.0179 57.2504ZM82.2641 66.0483C82.9289 67.2279 84.1846 67.4491 85.7111 67.3508L83.0274 62.6324C81.7471 63.7874 81.6732 65.0162 82.2641 66.0483ZM92.9252 76.3699C93.8608 75.3869 94.1809 74.0352 93.4176 72.7082C92.7036 71.4549 91.4479 71.16 90.0199 71.2583L92.9252 76.3699Z" fill="#F0E345"/>
</g>
<defs>
<clipPath id="clip0_17_40">
<rect width="176" height="198" fill="white"/>
</clipPath>
</defs>
</svg>
