<svg width="16" height="16" viewBox="0 0 16 16" fill="none" xmlns="http://www.w3.org/2000/svg"><path fill-rule="evenodd" clip-rule="evenodd" d="M8 16C12.4183 16 16 12.4183 16 8C16 3.58172 12.4183 0 8 0C3.58172 0 0 3.58172 0 8C0 12.4183 3.58172 16 8 16ZM6.5241 5.29842C6.5241 5.02228 6.74796 4.79842 7.0241 4.79842H9.02537C9.30152 4.79842 9.52537 5.02228 9.52537 5.29842L9.52537 7.57524C9.52537 7.85138 9.74923 8.07524 10.0254 8.07524H10.4817C10.9275 8.07524 11.1643 8.62636 10.8595 8.95167C10.0717 9.79239 8.95719 10.9937 8.38882 11.6069C8.1914 11.82 7.85593 11.8193 7.65765 11.6071L5.14408 8.91657C4.84554 8.59702 5.07214 8.07524 5.50944 8.07524H6.0241C6.30025 8.07524 6.5241 7.85138 6.5241 7.57524L6.5241 5.29842Z" fill="url(#paint0_linear_7_6)"/><defs><linearGradient id="paint0_linear_7_6" x1="16" y1="16" x2="-3.14576" y2="9.94216" gradientUnits="userSpaceOnUse"><stop stop-color="#4F3CC9"/><stop offset="1" stop-color="#3C8EC9"/></linearGradient></defs></svg>