<svg width="32" height="32" viewBox="0 0 32 32" fill="none" xmlns="http://www.w3.org/2000/svg">
<g clip-path="url(#clip0_9_5)">
<path d="M24.9564 20.3805C25.4839 20.5835 25.6868 21.3738 25.7272 21.7186C25.8085 22.3476 25.6263 22.5908 25.4234 22.5908C25.2204 22.5908 24.9362 22.3476 24.6324 21.861C24.328 21.3738 24.2064 20.8268 24.369 20.5425C24.4698 20.3597 24.6923 20.2791 24.9564 20.3805ZM21.8744 22.6721C22.199 22.6721 22.5639 22.814 22.8885 23.0976C23.5169 23.6251 23.6996 24.2333 23.375 24.6795C23.1923 24.9026 22.8885 25.0444 22.5437 25.0444C22.199 25.0444 21.8341 24.9228 21.5908 24.6997C21.0229 24.2131 20.861 23.4013 21.2253 22.9558C21.3677 22.773 21.5908 22.6721 21.8744 22.6721ZM14.7777 28.5322C7.07163 28.5322 0.826435 22.2864 0.826435 14.5809C0.826435 6.87545 7.07226 0.630255 14.7771 0.630255C22.4826 0.630255 28.7284 6.87608 28.7284 14.5809C28.7284 17.1965 27.9986 19.6507 26.762 21.7394C26.7211 21.7999 26.6196 21.7797 26.5994 21.6984C26.1129 18.2717 24.0242 16.3854 20.9826 15.8181C20.7185 15.7772 20.6782 15.6152 21.0229 15.5748C21.9557 15.4935 23.2736 15.5137 23.9631 15.6354C24.0034 15.2906 24.0242 14.9257 24.0242 14.5608C24.0242 9.47083 19.8872 5.33384 14.7973 5.33384C9.70798 5.33384 5.57099 9.47083 5.57099 14.5608C5.57099 19.6507 9.70798 23.7877 14.7979 23.7877H15.2233C15.0788 22.9644 15.0176 22.1287 15.0406 21.2931C15.0614 20.7253 15.183 20.644 15.4263 21.0902C16.7038 23.3005 18.529 25.2877 22.0975 26.0787C25.0175 26.7278 27.9375 27.4778 31.0805 31.4724C31.3642 31.8171 30.9387 32.1821 30.6142 31.8984C27.4106 29.0591 24.4906 28.1264 21.8341 28.1264C18.853 28.1472 16.8261 28.5322 14.7777 28.5322Z" fill="#FF8C00"/>
</g>
<defs>
<clipPath id="clip0_9_5">
<rect width="32" height="32" fill="white"/>
</clipPath>
</defs>
</svg>
