<?xml version="1.0" standalone="no"?>
<!DOCTYPE svg PUBLIC "-//W3C//DTD SVG 20010904//EN"
 "http://www.w3.org/TR/2001/REC-SVG-20010904/DTD/svg10.dtd">
<svg version="1.0" xmlns="http://www.w3.org/2000/svg"
 width="1024.000000pt" height="1024.000000pt" viewBox="0 0 1024.000000 1024.000000"
 preserveAspectRatio="xMidYMid meet">
<metadata>
Created by potrace 1.14, written by Peter Selinger 2001-2017
</metadata>
<g transform="translate(0.000000,1024.000000) scale(0.100000,-0.100000)"
fill="#000000" stroke="none">
<path d="M5040 9098 c-25 -12 -58 -27 -75 -34 -34 -14 -219 -96 -280 -124 -22
-10 -200 -89 -395 -175 -195 -87 -377 -168 -405 -180 -55 -25 -1102 -489
-1150 -510 -16 -7 -57 -25 -90 -40 -33 -15 -157 -70 -275 -122 -118 -52 -233
-103 -255 -113 -22 -10 -84 -37 -137 -60 -53 -23 -107 -53 -120 -67 l-23 -25
1 -1041 c1 -940 7 -1418 18 -1502 2 -16 7 -64 11 -105 30 -345 139 -801 279
-1165 50 -129 53 -136 112 -265 307 -673 809 -1307 1379 -1744 55 -42 105 -80
110 -84 25 -20 197 -133 265 -174 256 -156 532 -282 831 -383 239 -80 314 -82
522 -14 117 39 268 95 332 124 28 12 79 35 115 51 575 253 1174 727 1563 1234
50 65 123 160 139 178 10 14 181 269 205 307 160 259 305 558 408 841 46 125
101 295 109 338 3 12 10 37 16 56 18 60 78 331 90 413 6 43 13 88 15 100 7 37
27 199 31 247 2 25 6 81 10 125 4 44 7 613 8 1265 1 1169 1 1185 -19 1214 -11
16 -27 33 -35 38 -8 4 -190 85 -405 179 -214 94 -689 304 -1055 466 -660 293
-702 312 -833 372 -37 17 -69 31 -71 31 -2 0 -42 17 -88 39 -45 21 -117 53
-158 71 -41 18 -102 45 -135 60 -300 139 -448 200 -482 200 -21 -1 -58 -10
-83 -22z m210 -706 c41 -19 262 -117 490 -219 228 -102 433 -194 455 -204 22
-10 123 -55 225 -99 102 -45 208 -92 235 -105 28 -13 282 -125 565 -250 647
-285 600 -263 612 -294 9 -25 13 -1896 4 -2016 -14 -182 -20 -233 -37 -345
-23 -158 -24 -163 -55 -295 -28 -122 -80 -309 -94 -340 -5 -11 -18 -49 -30
-85 -60 -178 -208 -494 -315 -669 -60 -100 -166 -260 -199 -303 -12 -14 -32
-41 -46 -59 -414 -552 -923 -948 -1518 -1183 -250 -99 -326 -120 -427 -119
-82 0 -103 5 -240 53 -82 29 -168 61 -190 71 -50 22 -118 52 -125 54 -18 4
-183 89 -270 138 -111 63 -300 185 -362 233 -20 16 -48 38 -64 49 -15 11 -32
25 -38 30 -6 6 -36 30 -66 55 -203 166 -430 411 -605 654 -11 16 -34 47 -51
70 -29 38 -115 167 -139 208 -129 218 -228 419 -309 626 -31 78 -56 148 -56
155 0 8 -3 17 -7 21 -4 3 -8 12 -9 19 -1 7 -13 50 -28 97 -25 82 -80 303 -90
365 -17 100 -36 228 -41 280 -3 33 -8 76 -10 95 -13 95 -17 371 -16 1209 0
1015 -5 947 67 977 19 8 63 27 97 43 34 15 100 45 147 66 47 20 113 50 148 66
35 16 65 29 67 29 2 0 32 13 67 29 35 16 117 52 183 81 66 29 157 70 203 91
46 22 85 39 87 39 2 0 32 13 67 29 35 16 83 38 108 49 56 25 247 110 590 262
146 65 290 129 320 143 91 41 524 234 540 240 26 9 81 -5 160 -41z"/>
<path d="M4840 7804 c-140 -63 -264 -119 -275 -123 -27 -12 -562 -249 -600
-267 -16 -7 -273 -121 -570 -253 -469 -208 -542 -243 -555 -267 -13 -25 -15
-140 -14 -864 0 -459 4 -866 8 -905 12 -116 17 -156 32 -255 9 -52 18 -108 20
-125 6 -36 49 -209 70 -282 9 -29 20 -53 25 -53 7 0 288 233 355 295 6 5 33
28 59 50 27 22 53 45 59 50 6 6 38 33 71 60 33 28 62 52 65 55 3 3 32 28 65
55 66 56 112 95 129 110 6 6 51 44 101 85 49 41 126 107 171 145 45 39 92 79
105 90 13 11 112 94 219 185 107 91 206 174 219 185 13 11 29 25 35 30 13 12
131 112 165 140 13 11 29 25 35 30 6 6 54 46 106 90 52 44 97 82 100 85 3 3
46 39 95 80 50 41 92 78 95 81 3 3 52 45 110 94 58 48 128 107 155 130 28 24
100 85 160 136 61 51 115 98 121 104 6 5 33 28 59 50 65 54 392 330 430 364
17 14 63 53 103 86 39 32 72 61 72 63 0 3 -31 18 -195 92 -22 10 -103 46 -180
80 -77 34 -158 70 -180 80 -22 10 -142 63 -267 119 -126 55 -249 110 -275 122
-27 12 -66 29 -88 39 -22 10 -56 25 -77 34 -20 9 -47 16 -60 15 -12 0 -138
-52 -278 -115z"/>
<path d="M6910 7077 c-19 -17 -62 -54 -95 -82 -33 -27 -65 -54 -71 -60 -14
-12 -25 -22 -184 -155 -69 -57 -130 -109 -136 -115 -6 -5 -33 -28 -59 -50 -27
-22 -56 -47 -65 -55 -8 -8 -70 -60 -135 -115 -66 -55 -122 -102 -125 -105 -3
-3 -93 -80 -200 -170 -107 -90 -197 -167 -200 -170 -3 -3 -32 -27 -65 -55 -33
-27 -65 -54 -71 -60 -6 -5 -31 -26 -55 -47 -24 -20 -55 -46 -69 -58 -31 -26
-41 -35 -160 -135 -52 -44 -97 -82 -100 -85 -3 -3 -61 -52 -130 -109 -69 -58
-129 -109 -135 -115 -5 -6 -77 -67 -158 -135 -81 -68 -153 -128 -160 -135 -7
-6 -39 -33 -72 -61 -103 -86 -107 -90 -119 -100 -10 -9 -167 -142 -225 -190
-13 -11 -29 -24 -35 -30 -6 -5 -54 -46 -106 -90 -52 -44 -100 -84 -106 -90 -6
-5 -33 -28 -59 -50 -27 -22 -53 -44 -59 -50 -6 -5 -54 -46 -106 -89 -52 -44
-102 -87 -111 -95 -9 -9 -34 -30 -55 -48 -22 -17 -49 -39 -60 -50 -12 -10 -43
-36 -69 -58 -26 -22 -56 -47 -65 -55 -10 -8 -39 -33 -64 -54 -25 -21 -46 -43
-46 -48 0 -15 124 -227 187 -320 80 -118 178 -248 245 -323 14 -16 37 -43 51
-58 l24 -29 75 64 c41 35 99 83 128 108 29 25 58 50 64 55 6 6 38 33 71 60 52
44 168 142 330 280 28 23 111 93 185 156 74 62 137 115 140 119 3 3 32 28 65
55 98 82 107 90 119 100 6 6 54 46 106 90 52 44 101 85 108 92 7 7 34 29 60
50 26 21 49 41 52 44 3 3 50 43 105 90 55 46 111 93 125 105 14 12 147 125
295 250 149 125 272 230 275 234 3 3 27 24 55 45 27 22 56 47 65 55 25 23 68
60 140 119 36 30 67 57 70 60 3 3 26 23 52 44 26 21 53 43 60 50 7 7 114 98
238 202 124 104 236 199 250 211 14 12 120 102 235 199 116 97 222 188 238
201 l27 24 0 269 0 269 -26 31 c-14 17 -32 31 -40 31 -7 0 -30 9 -51 19 -60
30 -339 151 -349 151 -5 0 -25 -15 -44 -33z"/>
<path d="M7304 5582 c-55 -48 -125 -107 -154 -132 -30 -25 -61 -52 -70 -60 -8
-8 -40 -35 -70 -60 -30 -25 -57 -47 -60 -50 -3 -3 -48 -41 -100 -85 -52 -44
-106 -90 -120 -101 -14 -12 -88 -75 -165 -140 -77 -65 -145 -123 -151 -129 -6
-5 -33 -28 -60 -50 -26 -22 -58 -49 -70 -60 -12 -11 -41 -36 -64 -54 -24 -19
-48 -40 -54 -45 -6 -6 -38 -33 -71 -61 -33 -27 -62 -52 -65 -55 -3 -3 -48 -41
-100 -85 -52 -44 -100 -84 -106 -90 -6 -5 -33 -28 -60 -50 -26 -22 -66 -56
-89 -75 -90 -77 -156 -133 -300 -255 -82 -70 -172 -146 -200 -170 -27 -23
-129 -109 -225 -190 -198 -167 -263 -222 -330 -280 -74 -64 -101 -86 -165
-139 -33 -28 -62 -52 -65 -56 -3 -3 -61 -52 -130 -110 -69 -57 -127 -107 -130
-110 -3 -3 -20 -17 -37 -32 l-33 -26 32 -27 c71 -60 296 -200 430 -269 176
-89 229 -112 388 -167 110 -38 135 -43 210 -43 72 0 101 6 190 38 58 20 110
38 115 40 12 3 27 10 110 44 55 22 284 137 330 165 255 155 455 314 640 507
90 94 115 122 183 210 37 47 69 87 73 90 9 8 174 251 193 285 9 17 30 53 46
80 36 60 170 332 170 344 0 5 11 33 23 62 74 170 166 508 191 699 3 25 8 63
11 85 22 165 36 696 18 694 -4 0 -53 -39 -109 -87z"/>
</g>
</svg>
