<svg width="196" height="196" viewBox="0 0 196 196" fill="none" xmlns="http://www.w3.org/2000/svg">
<g clip-path="url(#clip0_33_25)">
<path opacity="0.6" d="M98 195C151.572 195 195 151.572 195 98C195 44.4284 151.572 1 98 1C44.4284 1 1 44.4284 1 98C1 151.572 44.4284 195 98 195Z" fill="url(#paint0_linear_33_25)" fill-opacity="0.6" stroke="white" stroke-width="2"/>
<path d="M161.58 108.842L57.2633 148.693C55.2739 149.46 53.0284 148.457 52.2602 146.471L30.2583 89.1028C29.4901 87.1171 30.4947 84.8758 32.4841 84.1091L136.801 44.2578C138.79 43.4911 141.036 44.4937 141.804 46.4794L163.806 103.848C164.594 105.853 163.589 108.075 161.58 108.842Z" fill="#F0E345"/>
<path d="M141.824 46.4794C141.056 44.4937 138.81 43.4911 136.821 44.2578L92.0684 61.3622L134.457 119.222L161.58 108.861C163.57 108.095 164.574 105.853 163.806 103.868L141.824 46.4794Z" fill="#E2D134"/>
<path d="M101.976 94.4701L133.905 45.3589L35.4189 82.9885L92.0289 98.2645C95.8108 99.2869 99.8291 97.7533 101.976 94.4701Z" fill="#E5A431"/>
<path d="M108.732 84.0895L133.905 45.3589L93.585 60.7725L92.0684 61.3426L108.732 84.0895Z" fill="#D39024"/>
<path d="M150.313 108.665C150.235 108.665 150.136 108.645 150.057 108.625L108.358 97.3796C107.846 97.242 107.531 96.7112 107.669 96.2C107.807 95.6888 108.338 95.3742 108.85 95.5119L150.55 106.758C151.062 106.895 151.377 107.426 151.239 107.937C151.121 108.389 150.727 108.665 150.313 108.665Z" fill="#C6514E"/>
<path d="M150.55 106.777L119.132 98.3037L120.964 100.801L150.057 108.645C150.136 108.665 150.234 108.684 150.313 108.684C150.746 108.684 151.14 108.409 151.239 107.977C151.377 107.446 151.081 106.915 150.55 106.777Z" fill="#AA3C3C"/>
<path d="M64.9057 141.301C64.7284 141.301 64.5511 141.242 64.3739 141.144C63.9208 140.849 63.8026 140.259 64.0981 139.807L87.6166 103.632C87.9121 103.18 88.503 103.062 88.9561 103.357C89.4091 103.651 89.5273 104.241 89.2318 104.693L65.7133 140.868C65.536 141.144 65.2208 141.301 64.9057 141.301Z" fill="#C6514E"/>
</g>
<defs>
<linearGradient id="paint0_linear_33_25" x1="149.076" y1="12.4576" x2="38.6186" y2="159.458" gradientUnits="userSpaceOnUse">
<stop offset="0.197973" stop-color="white" stop-opacity="0.32"/>
<stop offset="1" stop-color="white" stop-opacity="0"/>
</linearGradient>
<clipPath id="clip0_33_25">
<rect width="196" height="196" fill="white"/>
</clipPath>
</defs>
</svg>
