<svg width="240" height="240" viewBox="0 0 240 240" fill="none" xmlns="http://www.w3.org/2000/svg">
<g clip-path="url(#clip0_33_48)">
<path opacity="0.6" d="M120 239C185.722 239 239 185.722 239 120C239 54.2781 185.722 1 120 1C54.2781 1 1 54.2781 1 120C1 185.722 54.2781 239 120 239Z" fill="url(#paint0_linear_33_48)" fill-opacity="0.6" stroke="white" stroke-width="2"/>
<path d="M211.357 90.2518L118.149 210.297C115.372 213.875 110.211 214.524 106.626 211.752L34.1798 155.72C30.5949 152.948 29.9449 147.797 32.7222 144.219L125.93 24.1738C128.707 20.5957 133.868 19.9469 137.453 22.719L209.899 78.7506C213.484 81.503 214.134 86.654 211.357 90.2518Z" fill="#C6514E"/>
<path d="M158.864 157.863L211.357 90.2518C214.134 86.6736 213.484 81.5227 209.899 78.7506L137.453 22.719C133.868 19.9469 128.707 20.5957 125.93 24.1738L92.4839 67.269L158.864 157.863Z" fill="#AA3C3C"/>
<path d="M142.885 26.9321L39.624 159.934L56.1113 172.686L159.372 39.6845L142.885 26.9321Z" fill="#E5A431"/>
<path d="M114.584 97.4277L159.395 39.6856L142.929 26.9458L101.761 79.9497L114.584 97.4277Z" fill="#D39024"/>
<path d="M76.135 172.707L75.7411 173.218C75.3668 173.69 74.6774 173.788 74.2047 173.414L71.2895 171.173C70.8167 170.8 70.7183 170.112 71.0925 169.64L71.4864 169.129C71.8607 168.657 72.5501 168.558 73.0228 168.932L75.938 171.173C76.4108 171.547 76.4896 172.235 76.135 172.707Z" fill="#F0E345"/>
<path d="M80.1335 167.556L79.7396 168.067C79.3653 168.539 78.6759 168.637 78.2032 168.264L75.288 166.022C74.8153 165.649 74.7168 164.961 75.091 164.489L75.485 163.978C75.8592 163.506 76.5486 163.407 77.0214 163.781L79.9366 166.022C80.4093 166.396 80.5078 167.084 80.1335 167.556Z" fill="#F0E345"/>
<path d="M84.1321 162.405L83.7381 162.916C83.3639 163.388 82.6745 163.486 82.2017 163.113L79.2865 160.871C78.8138 160.498 78.7153 159.81 79.0896 159.338L79.4835 158.827C79.8578 158.355 80.5472 158.257 81.0199 158.63L83.9351 160.871C84.4078 161.245 84.5063 161.933 84.1321 162.405Z" fill="#F0E345"/>
<path d="M88.1306 157.254L87.7367 157.765C87.3624 158.237 86.673 158.335 86.2003 157.962L83.2851 155.721C82.8123 155.347 82.7139 154.659 83.0881 154.187L83.4821 153.676C83.8563 153.204 84.5457 153.106 85.0184 153.479L87.9336 155.721C88.4064 156.094 88.5049 156.782 88.1306 157.254Z" fill="#F0E345"/>
<path d="M98.4915 143.924L98.0975 144.435C97.7233 144.907 97.0339 145.005 96.5611 144.632L93.6459 142.39C93.1732 142.017 93.0747 141.329 93.4489 140.857L93.8429 140.346C94.2171 139.874 94.9065 139.776 95.3793 140.149L98.2945 142.39C98.7672 142.744 98.846 143.432 98.4915 143.924Z" fill="#F0E345"/>
<path d="M102.49 138.773L102.096 139.284C101.722 139.756 101.032 139.854 100.56 139.481L97.6445 137.24C97.1717 136.866 97.0732 136.178 97.4475 135.706L97.8414 135.195C98.2157 134.723 98.9051 134.625 99.3778 134.998L102.293 137.24C102.766 137.593 102.864 138.282 102.49 138.773Z" fill="#F0E345"/>
<path d="M106.489 133.603L106.095 134.114C105.72 134.586 105.031 134.684 104.558 134.31L101.643 132.069C101.17 131.696 101.072 131.008 101.446 130.536L101.84 130.024C102.214 129.553 102.904 129.454 103.376 129.828L106.292 132.069C106.764 132.443 106.863 133.131 106.489 133.603Z" fill="#F0E345"/>
<path d="M110.487 128.452L110.093 128.963C109.719 129.435 109.029 129.533 108.557 129.16L105.642 126.918C105.169 126.545 105.07 125.857 105.445 125.385L105.838 124.874C106.213 124.402 106.902 124.303 107.375 124.677L110.29 126.918C110.763 127.292 110.861 127.98 110.487 128.452Z" fill="#F0E345"/>
<path d="M120.848 115.122L120.454 115.633C120.08 116.105 119.39 116.204 118.918 115.83L116.002 113.589C115.53 113.215 115.431 112.527 115.805 112.055L116.199 111.544C116.574 111.072 117.263 110.974 117.736 111.347L120.651 113.589C121.124 113.962 121.202 114.65 120.848 115.122Z" fill="#F0E345"/>
<path d="M124.846 109.971L124.452 110.482C124.078 110.954 123.389 111.052 122.916 110.679L120.001 108.437C119.528 108.064 119.43 107.376 119.804 106.904L120.198 106.393C120.572 105.921 121.262 105.823 121.734 106.196L124.649 108.437C125.122 108.811 125.201 109.499 124.846 109.971Z" fill="#F0E345"/>
<path d="M128.845 104.82L128.451 105.331C128.077 105.803 127.387 105.901 126.915 105.528L123.999 103.286C123.527 102.913 123.428 102.225 123.802 101.753L124.196 101.242C124.571 100.77 125.26 100.672 125.733 101.045L128.648 103.286C129.121 103.66 129.219 104.348 128.845 104.82Z" fill="#E2D134"/>
<path d="M132.843 99.6691L132.45 100.18C132.075 100.652 131.386 100.75 130.913 100.377L127.998 98.1356C127.525 97.7621 127.427 97.0739 127.801 96.6021L128.195 96.0909C128.569 95.6191 129.259 95.5208 129.731 95.8943L132.647 98.1356C133.119 98.4895 133.218 99.1776 132.843 99.6691Z" fill="#E2D134"/>
<path d="M143.184 86.3395L142.79 86.8507C142.416 87.3225 141.727 87.4208 141.254 87.0472L138.339 84.806C137.866 84.4324 137.768 83.7443 138.142 83.2725L138.536 82.7613C138.91 82.2895 139.599 82.1912 140.072 82.5647L142.987 84.806C143.48 85.1599 143.559 85.848 143.184 86.3395Z" fill="#E2D134"/>
<path d="M147.203 81.1686L146.809 81.6797C146.435 82.1516 145.745 82.2499 145.273 81.8764L142.357 79.6351C141.885 79.2616 141.786 78.5734 142.16 78.1016L142.554 77.5904C142.929 77.1186 143.618 77.0203 144.091 77.3938L147.006 79.6351C147.479 80.0086 147.557 80.6967 147.203 81.1686Z" fill="#E2D134"/>
<path d="M151.201 76.0177L150.807 76.5289C150.433 77.0007 149.744 77.099 149.271 76.7255L146.356 74.4842C145.883 74.1107 145.785 73.4226 146.159 72.9507L146.553 72.4396C146.927 71.9677 147.617 71.8694 148.089 72.2429L151.004 74.4842C151.477 74.8578 151.576 75.5459 151.201 76.0177Z" fill="#E2D134"/>
<path d="M155.2 70.8668L154.806 71.378C154.432 71.8499 153.742 71.9481 153.27 71.5746L150.354 69.3333C149.882 68.9598 149.783 68.2717 150.157 67.7998L150.551 67.2887C150.926 66.8168 151.615 66.7185 152.088 67.0921L155.003 69.3333C155.476 69.7069 155.574 70.395 155.2 70.8668Z" fill="#E2D134"/>
<path d="M133.592 145.438L99.3186 189.595C98.4519 190.716 96.8171 190.932 95.6943 190.047L89.5291 185.27C88.4063 184.405 88.1897 182.773 89.076 181.652L123.349 137.495C124.216 136.375 125.851 136.159 126.974 137.043L133.139 141.821C134.262 142.686 134.478 144.318 133.592 145.438Z" fill="#E5A431"/>
<path d="M193.078 82.8398C195.894 85.0221 196.407 89.0524 194.22 91.8639C192.034 94.6753 187.996 95.1864 185.179 93.0042C182.362 90.8219 181.85 86.7915 184.037 83.9801C186.223 81.1687 190.261 80.6575 193.078 82.8398Z" fill="#E2D134"/>
<path d="M186.972 90.7041C189.788 92.8863 190.301 96.9167 188.114 99.7281C185.928 102.54 181.89 103.051 179.073 100.868C176.256 98.6861 175.744 94.6558 177.931 91.8444C180.117 89.0329 184.155 88.5218 186.972 90.7041Z" fill="#3D5A89"/>
<path d="M124.275 110.659C124.334 110.6 124.413 110.541 124.452 110.482L124.846 109.971C125.22 109.499 125.122 108.811 124.649 108.438L121.734 106.196C121.478 106 121.143 105.941 120.848 106L124.275 110.659Z" fill="#E2D134"/>
</g>
<defs>
<linearGradient id="paint0_linear_33_48" x1="182.542" y1="15.2542" x2="47.2881" y2="195.254" gradientUnits="userSpaceOnUse">
<stop offset="0.197973" stop-color="white" stop-opacity="0.32"/>
<stop offset="1" stop-color="white" stop-opacity="0"/>
</linearGradient>
<clipPath id="clip0_33_48">
<rect width="240" height="240" fill="white"/>
</clipPath>
</defs>
</svg>
