<svg width="158" height="168" viewBox="0 0 158 168" fill="none" xmlns="http://www.w3.org/2000/svg">
<path d="M156.283 56.2303L68.2641 164.568C66.5897 166.641 63.5322 166.959 61.4596 165.29L1.78708 116.938C-0.285521 115.269 -0.598821 112.215 1.07558 110.142L89.0938 1.80377C90.7688 -0.269628 93.8258 -0.587628 95.8988 1.08177L155.571 49.4335C157.677 51.1119 157.978 54.1446 156.283 56.2303Z" fill="#F0E345"/>
<path d="M95.9198 1.06956C93.8468 -0.599835 90.7898 -0.281835 89.1158 1.79156L51.3602 48.2774L133.409 84.4198L156.295 56.2518C157.969 54.1784 157.656 51.1243 155.583 49.4549L95.9198 1.06956Z" fill="#E2D134"/>
<path d="M82.7778 77.9248L86.6478 4.80518L3.55206 107.093L74.3808 88.2495C79.1138 86.9925 82.5058 82.8209 82.7778 77.9248Z" fill="#E5A431"/>
<path d="M83.6038 62.465L86.6478 4.80518L52.6333 46.6907L51.3478 48.2559L83.6038 62.465Z" fill="#D39024"/>
<path d="M143.975 63.0805C143.89 63.1297 143.771 63.17 143.674 63.1979L91.5048 77.086C90.8648 77.2571 90.1918 76.8795 90.0208 76.24C89.8508 75.6004 90.2298 74.9275 90.8708 74.7564L143.039 60.8683C143.68 60.6972 144.353 61.0749 144.523 61.7144C144.678 62.2778 144.423 62.8219 143.975 63.0805Z" fill="#C6514E"/>
<path d="M143.052 60.8896L103.746 71.3524L107.289 72.9104L143.686 63.2192C143.784 63.1913 143.902 63.151 143.988 63.1017C144.457 62.8309 144.711 62.2868 144.548 61.757C144.365 61.0962 143.713 60.7062 143.052 60.8896Z" fill="#AA3C3C"/>
<path d="M71.9171 151.789C71.7252 151.9 71.4964 151.947 71.2431 151.951C70.5684 151.915 70.0718 151.351 70.109 150.677L72.9598 96.8175C72.9968 96.1425 73.5628 95.6455 74.2368 95.6815C74.9118 95.7185 75.4088 96.2825 75.3718 96.9565L72.521 150.816C72.5011 151.225 72.2582 151.592 71.9171 151.789Z" fill="#C6514E"/>
</svg>
