<svg width="228" height="242" viewBox="0 0 228 242" fill="none" xmlns="http://www.w3.org/2000/svg">
<path d="M225.444 86.564L108.936 236.619C105.464 241.092 99.0133 241.903 94.5322 238.438L3.97473 168.399C-0.506365 164.934 -1.31887 158.495 2.15275 154.023L118.661 3.96724C122.133 -0.505427 128.584 -1.31638 133.065 2.14871L223.622 72.1876C228.103 75.6281 228.916 82.0667 225.444 86.564Z" fill="#C6514E"/>
<path d="M159.828 171.078L225.444 86.564C228.916 82.0913 228.103 75.6527 223.622 72.1876L133.065 2.14871C128.584 -1.31638 122.133 -0.505427 118.661 3.96724L76.854 57.8357L159.828 171.078Z" fill="#AA3C3C"/>
<path d="M139.855 7.41504L10.7803 173.666L31.3892 189.607L160.464 23.3554L139.855 7.41504Z" fill="#E5A431"/>
<path d="M104.479 95.5337L160.493 23.3568L139.909 7.43213L88.4507 73.6865L104.479 95.5337Z" fill="#D39024"/>
<path d="M56.4181 189.632L55.9257 190.271C55.4579 190.861 54.5961 190.983 54.0052 190.516L50.3612 187.715C49.7703 187.248 49.6472 186.388 50.115 185.798L50.6074 185.159C51.0752 184.569 51.937 184.446 52.5279 184.913L56.1719 187.715C56.7628 188.182 56.8613 189.042 56.4181 189.632Z" fill="#F0E345"/>
<path d="M61.4161 183.193L60.9237 183.832C60.4559 184.422 59.5942 184.545 59.0032 184.078L55.3593 181.276C54.7684 180.809 54.6453 179.949 55.1131 179.36L55.6055 178.721C56.0733 178.131 56.935 178.008 57.526 178.475L61.1699 181.276C61.7608 181.743 61.8839 182.603 61.4161 183.193Z" fill="#F0E345"/>
<path d="M66.4142 176.755L65.9218 177.394C65.4539 177.983 64.5922 178.106 64.0013 177.639L60.3573 174.838C59.7664 174.371 59.6433 173.511 60.1111 172.921L60.6035 172.282C61.0713 171.692 61.9331 171.569 62.524 172.036L66.168 174.838C66.7589 175.305 66.882 176.165 66.4142 176.755Z" fill="#F0E345"/>
<path d="M71.4127 170.315L70.9203 170.954C70.4525 171.544 69.5907 171.666 68.9998 171.2L65.3559 168.398C64.7649 167.931 64.6418 167.071 65.1096 166.481L65.6021 165.842C66.0699 165.252 66.9316 165.13 67.5225 165.596L71.1665 168.398C71.7574 168.865 71.8805 169.725 71.4127 170.315Z" fill="#F0E345"/>
<path d="M84.3634 153.654L83.871 154.293C83.4032 154.883 82.5414 155.006 81.9505 154.539L78.3065 151.737C77.7156 151.27 77.5925 150.41 78.0603 149.82L78.5528 149.181C79.0206 148.592 79.8823 148.469 80.4732 148.936L84.1172 151.737C84.7081 152.179 84.8066 153.04 84.3634 153.654Z" fill="#F0E345"/>
<path d="M89.3614 147.215L88.869 147.854C88.4012 148.444 87.5395 148.567 86.9485 148.1L83.3046 145.298C82.7137 144.832 82.5906 143.971 83.0584 143.382L83.5508 142.743C84.0186 142.153 84.8804 142.03 85.4713 142.497L89.1152 145.298C89.7061 145.741 89.8293 146.601 89.3614 147.215Z" fill="#F0E345"/>
<path d="M94.3595 140.751L93.8671 141.39C93.3993 141.98 92.5375 142.103 91.9466 141.636L88.3026 138.834C87.7117 138.367 87.5886 137.507 88.0564 136.917L88.5488 136.278C89.0167 135.689 89.8784 135.566 90.4693 136.033L94.1133 138.834C94.7042 139.301 94.8273 140.161 94.3595 140.751Z" fill="#F0E345"/>
<path d="M99.358 134.312L98.8656 134.951C98.3978 135.541 97.536 135.664 96.9451 135.197L93.3012 132.396C92.7103 131.929 92.5871 131.068 93.055 130.479L93.5474 129.84C94.0152 129.25 94.8769 129.127 95.4678 129.594L99.1118 132.396C99.7027 132.863 99.8258 133.723 99.358 134.312Z" fill="#F0E345"/>
<path d="M112.309 117.652L111.816 118.291C111.348 118.88 110.487 119.003 109.896 118.536L106.252 115.735C105.661 115.268 105.538 114.408 106.006 113.818L106.498 113.179C106.966 112.589 107.828 112.466 108.419 112.933L112.062 115.735C112.653 116.202 112.752 117.062 112.309 117.652Z" fill="#F0E345"/>
<path d="M117.307 111.213L116.814 111.852C116.347 112.442 115.485 112.564 114.894 112.098L111.25 109.296C110.659 108.829 110.536 107.969 111.004 107.379L111.496 106.74C111.964 106.15 112.826 106.027 113.417 106.494L117.061 109.296C117.651 109.763 117.75 110.623 117.307 111.213Z" fill="#F0E345"/>
<path d="M122.305 104.774L121.812 105.413C121.345 106.003 120.483 106.126 119.892 105.659L116.248 102.857C115.657 102.39 115.534 101.53 116.002 100.941L116.494 100.302C116.962 99.7119 117.824 99.5889 118.415 100.056L122.059 102.857C122.65 103.324 122.773 104.184 122.305 104.774Z" fill="#E2D134"/>
<path d="M127.303 98.3353L126.81 98.9743C126.343 99.5641 125.481 99.6868 124.89 99.2201L121.246 96.4185C120.655 95.9516 120.532 95.0914 121 94.5016L121.492 93.8627C121.96 93.2729 122.822 93.15 123.413 93.6169L127.057 96.4185C127.648 96.8608 127.771 97.721 127.303 98.3353Z" fill="#E2D134"/>
<path d="M140.229 81.6733L139.737 82.3122C139.269 82.902 138.407 83.0249 137.816 82.5579L134.172 79.7564C133.581 79.2895 133.458 78.4293 133.926 77.8395L134.418 77.2006C134.886 76.6108 135.748 76.4879 136.339 76.9548L139.983 79.7564C140.598 80.1987 140.697 81.0589 140.229 81.6733Z" fill="#E2D134"/>
<path d="M145.252 75.2103L144.76 75.8492C144.292 76.439 143.43 76.5619 142.839 76.095L139.195 73.2935C138.604 72.8265 138.481 71.9664 138.949 71.3766L139.441 70.7376C139.909 70.1478 140.771 70.025 141.362 70.4919L145.006 73.2935C145.597 73.7604 145.695 74.6205 145.252 75.2103Z" fill="#E2D134"/>
<path d="M150.25 68.7714L149.758 69.4103C149.29 70.0001 148.428 70.123 147.837 69.6561L144.193 66.8545C143.602 66.3876 143.479 65.5275 143.947 64.9377L144.439 64.2987C144.907 63.7089 145.769 63.586 146.36 64.053L150.004 66.8545C150.595 67.3214 150.718 68.1816 150.25 68.7714Z" fill="#E2D134"/>
<path d="M155.248 62.3329L154.756 62.9718C154.288 63.5616 153.426 63.6845 152.835 63.2176L149.191 60.416C148.6 59.9491 148.477 59.089 148.945 58.4992L149.438 57.8602C149.905 57.2704 150.767 57.1475 151.358 57.6145L155.002 60.416C155.593 60.8829 155.716 61.7431 155.248 62.3329Z" fill="#E2D134"/>
<path d="M128.239 155.546L85.3974 210.742C84.3141 212.143 82.2705 212.413 80.8671 211.307L73.1606 205.335C71.7572 204.254 71.4863 202.214 72.5943 200.813L115.436 145.618C116.519 144.217 118.562 143.947 119.966 145.053L127.672 151.024C129.076 152.106 129.347 154.145 128.239 155.546Z" fill="#E5A431"/>
<path d="M202.595 77.2987C206.116 80.0265 206.756 85.0646 204.023 88.5788C201.29 92.093 196.243 92.732 192.722 90.0042C189.201 87.2763 188.561 82.2383 191.294 78.7241C194.027 75.2098 199.075 74.5709 202.595 77.2987Z" fill="#E2D134"/>
<path d="M194.963 87.1289C198.484 89.8567 199.124 94.8946 196.391 98.4089C193.658 101.923 188.611 102.562 185.09 99.8346C181.569 97.1064 180.929 92.0685 183.662 88.5542C186.395 85.04 191.442 84.401 194.963 87.1289Z" fill="#3D5A89"/>
<path d="M116.593 112.073C116.667 111.999 116.766 111.926 116.815 111.852L117.307 111.213C117.775 110.623 117.652 109.763 117.061 109.296L113.417 106.495C113.097 106.249 112.678 106.175 112.309 106.249L116.593 112.073Z" fill="#E2D134"/>
</svg>
