<svg width="240" height="240" viewBox="0 0 240 240" fill="none" xmlns="http://www.w3.org/2000/svg">
<g clip-path="url(#clip0_33_2)">
<path opacity="0.6" d="M120 239C185.722 239 239 185.722 239 120C239 54.2781 185.722 1 120 1C54.2781 1 1 54.2781 1 120C1 185.722 54.2781 239 120 239Z" fill="url(#paint0_linear_33_2)" fill-opacity="0.6" stroke="white" stroke-width="2"/>
<path d="M129.041 185.126L34.3617 106.166C32.2989 104.446 32.0272 101.385 33.745 99.3384L64.0959 62.8011C65.8121 60.7349 68.8674 60.4635 70.9106 62.1851L165.59 141.146C167.653 142.866 167.924 145.927 166.207 147.973L135.856 184.51C134.159 186.575 131.104 186.846 129.041 185.126Z" fill="#65B2B9"/>
<path d="M166.226 147.971C167.943 145.905 167.651 142.846 165.61 141.144L134.689 115.361L90.6269 153.097L129.062 185.144C131.125 186.864 134.179 186.573 135.877 184.528L166.226 147.971Z" fill="#519A9E"/>
<path d="M43.166 96.4304L62.9491 72.6266C66.2324 75.3603 71.1078 74.9112 73.8354 71.6226L155.8 139.972C153.073 143.261 153.522 148.146 156.806 150.879L137.023 174.683C133.739 171.949 128.864 172.398 126.136 175.687L44.1713 107.337C46.8989 104.049 46.4493 99.164 43.166 96.4304Z" fill="#4B68A3"/>
<path d="M155.801 139.972L130.521 118.898L94.753 149.525L126.136 175.687C128.864 172.399 133.739 171.949 137.023 174.683L156.806 150.879C153.523 148.146 153.073 143.261 155.801 139.972Z" fill="#3D5A89"/>
<path d="M88.187 137.852C94.8895 143.442 105.599 141.623 112.107 133.789C118.614 125.955 118.457 115.073 111.754 109.484C105.052 103.894 94.3425 105.714 87.8346 113.547C81.3267 121.381 81.4845 132.263 88.187 137.852Z" fill="#65B2B9"/>
<path d="M141.453 155.383L120.382 137.801C119.919 137.421 119.867 136.734 120.248 136.29C120.626 135.827 121.313 135.775 121.756 136.156L142.827 153.738C143.289 154.118 143.341 154.805 142.961 155.249C142.582 155.712 141.915 155.763 141.453 155.383Z" fill="#E2D134"/>
<path d="M137.281 160.421L116.21 142.839C115.747 142.46 115.695 141.772 116.075 141.328C116.454 140.865 117.14 140.813 117.583 141.194L138.654 158.776C139.117 159.156 139.169 159.843 138.789 160.287C138.408 160.73 137.724 160.802 137.281 160.421Z" fill="#E2D134"/>
<path d="M82.3885 106.116L61.3175 88.5343C60.8549 88.1545 60.8027 87.4671 61.1831 87.0234C61.562 86.5601 62.2481 86.508 62.6911 86.8892L83.7621 104.471C84.2247 104.85 84.2768 105.538 83.8964 105.982C83.5176 106.445 82.8314 106.497 82.3885 106.116Z" fill="#F0E345"/>
<path d="M78.1966 111.155L57.1256 93.5733C56.663 93.1936 56.6108 92.5062 56.9912 92.0625C57.3701 91.5991 58.0562 91.5471 58.4992 91.9283L79.5702 109.51C80.0328 109.89 80.0849 110.577 79.7045 111.021C79.3438 111.463 78.6592 111.535 78.1966 111.155Z" fill="#F0E345"/>
<path d="M107.804 115.742L107.19 116.48C108.882 117.992 110.023 120.038 109.463 120.713C109.048 121.219 107.538 121.847 107.137 121.502C106.842 121.248 106.655 120.077 105.238 118.821L101.987 122.742C103.206 125.04 104.734 127.769 102.349 130.636C99.9102 133.567 96.9021 133.42 94.4713 131.787L93.6396 132.779C93.3135 133.159 93.0195 133.181 92.682 132.891C92.2812 132.546 92.2196 132.254 92.5457 131.874L93.3592 130.904C90.6532 128.502 89.7988 126.077 90.3588 125.403C90.8283 124.834 92.4888 124.372 92.8475 124.68C93.185 124.971 93.4969 127.002 95.311 128.563L98.8703 124.283C97.5725 121.991 95.966 119.268 98.4415 116.295C100.573 113.723 103.566 113.931 106.078 115.597L106.711 114.838C107.037 114.457 107.331 114.435 107.689 114.744C108.069 115.07 108.13 115.362 107.804 115.742ZM101.284 118.41C100.579 119.254 100.772 120.247 101.27 121.355L104.054 118.022C102.824 117.404 101.899 117.692 101.284 118.41ZM96.5498 129.298C97.5477 129.717 98.6425 129.594 99.438 128.645C100.179 127.759 100.043 126.742 99.5687 125.691L96.5498 129.298Z" fill="#F0E345"/>
<path d="M147.13 184.454L78.3341 82.0565C76.8447 79.8386 77.4234 76.8118 79.6368 75.3203L119.008 48.7852C121.222 47.2937 124.243 47.8743 125.732 50.0922L194.528 152.49C196.017 154.708 195.439 157.735 193.225 159.226L153.854 185.761C151.642 187.273 148.621 186.692 147.13 184.454Z" fill="#65B2B9"/>
<path d="M153.855 185.781L193.227 159.246C195.44 157.754 196.04 154.746 194.529 152.51L162.299 104.544L118.57 141.978L147.11 184.456C148.621 186.692 151.642 187.272 153.855 185.781Z" fill="#519A9E"/>
<path d="M89.5244 75.1822L115.165 57.8872C117.544 61.4401 122.347 62.3793 125.893 59.9965L185.462 148.635C181.916 151.018 180.98 155.83 183.359 159.383L157.719 176.677C155.34 173.125 150.536 172.185 146.991 174.568L87.4417 85.9284C90.9677 83.5471 91.9038 78.7351 89.5244 75.1822Z" fill="#4B68A3"/>
<path d="M185.461 148.635L158.208 108.055L122.718 138.444L146.991 174.568C150.536 172.185 155.339 173.125 157.719 176.678L183.359 159.383C180.98 155.83 181.916 151.018 185.461 148.635Z" fill="#3D5A89"/>
<path d="M121.135 127.58C126.003 134.827 136.792 136.091 145.232 130.401C153.672 124.712 156.567 114.224 151.698 106.976C146.829 99.7286 136.04 98.4654 127.601 104.155C119.161 109.844 116.266 120.332 121.135 127.58Z" fill="#65B2B9"/>
<path d="M153.764 111.849L128.826 133.199C133.896 134.79 140.022 133.93 145.256 130.412C151.953 125.913 155.147 118.381 153.764 111.849Z" fill="#519A9E"/>
<path d="M167.37 159.392L152.056 136.612C151.723 136.124 151.849 135.443 152.356 135.108C152.843 134.775 153.523 134.901 153.857 135.409L169.171 158.188C169.504 158.676 169.378 159.358 168.871 159.692C168.364 160.027 167.702 159.88 167.37 159.392Z" fill="#E2D134"/>
<path d="M161.948 163.042L146.634 140.263C146.302 139.775 146.427 139.094 146.934 138.759C147.422 138.425 148.102 138.552 148.436 139.06L163.75 161.839C164.083 162.327 163.957 163.009 163.45 163.343C162.943 163.678 162.283 163.55 161.948 163.042Z" fill="#E2D134"/>
<path d="M124.447 95.5055L109.133 72.7261C108.801 72.2378 108.926 71.5566 109.433 71.2218C109.921 70.8885 110.601 71.0147 110.935 71.5227L126.249 94.3021C126.582 94.7904 126.456 95.4716 125.949 95.8064C125.461 96.1397 124.782 96.0135 124.447 95.5055Z" fill="#F0E345"/>
<path d="M119.028 99.1765L103.714 76.397C103.381 75.9087 103.507 75.2275 104.014 74.8927C104.501 74.5594 105.181 74.6856 105.515 75.1936L120.829 97.973C121.162 98.4613 121.036 99.1425 120.529 99.4773C120.041 99.791 119.361 99.6648 119.028 99.1765Z" fill="#F0E345"/>
<path d="M146.157 111.893L145.369 112.427C146.56 114.352 147.089 116.642 146.377 117.131C145.852 117.487 144.21 117.671 143.921 117.238C143.699 116.919 143.845 115.723 142.857 114.139L138.637 116.988C139.166 119.535 139.87 122.583 136.774 124.655C133.624 126.791 130.769 125.802 128.883 123.555L127.813 124.269C127.401 124.557 127.1 124.481 126.854 124.104C126.564 123.652 126.602 123.373 127.014 123.085L128.064 122.373C126.136 119.319 126 116.742 126.712 116.253C127.312 115.852 129.048 115.859 129.315 116.253C129.56 116.63 129.281 118.666 130.596 120.66L135.209 117.544C134.601 114.983 133.816 111.921 137.024 109.762C139.781 107.893 142.601 108.943 144.57 111.243L145.375 110.688C145.787 110.4 146.089 110.476 146.355 110.871C146.607 111.326 146.57 111.625 146.157 111.893ZM139.154 112.622C138.253 113.224 138.153 114.239 138.323 115.451L141.925 113.024C140.926 112.073 139.941 112.088 139.154 112.622ZM131.566 121.752C132.406 122.439 133.504 122.612 134.516 121.923C135.473 121.277 135.632 120.258 135.467 119.125L131.566 121.752Z" fill="#F0E345"/>
</g>
<defs>
<linearGradient id="paint0_linear_33_2" x1="182.542" y1="15.2542" x2="47.2881" y2="195.254" gradientUnits="userSpaceOnUse">
<stop offset="0.197973" stop-color="white" stop-opacity="0.32"/>
<stop offset="1" stop-color="white" stop-opacity="0"/>
</linearGradient>
<clipPath id="clip0_33_2">
<rect width="240" height="240" fill="white"/>
</clipPath>
</defs>
</svg>
