<svg width="120" height="80" viewBox="0 0 120 80" fill="none" xmlns="http://www.w3.org/2000/svg">
<g clip-path="url(#clip0_1_142)">
<path d="M33 27.0405L59.9595 54L87 26.9595L60.0405 0L33 27.0405ZM59.9814 39.3981L47.6019 27.0186L72.3981 26.9814L59.9814 39.3981Z" fill="white"/>
<path d="M4.00011 79.6811C3.94697 79.5942 3.89986 79.5048 3.8588 79.413C3.81774 79.3212 3.77788 79.227 3.73923 79.1304L0.0217397 69.3982C0.0217397 69.3741 0.0181164 69.3524 0.0108698 69.333C0.00362328 69.3137 0 69.2944 0 69.2751C0 69.1398 0.0893744 69.0722 0.268123 69.0722H2.60152C2.7851 69.0722 2.91071 69.1639 2.97834 69.3475L5.18855 75.9419C5.38662 75.3912 5.57624 74.8416 5.7574 74.2933C5.93857 73.745 6.11731 73.1955 6.29365 72.6447C6.46998 72.094 6.64873 71.5444 6.82989 70.9961C7.01106 70.4478 7.20068 69.8983 7.39875 69.3475C7.46639 69.1639 7.59924 69.0722 7.79731 69.0722H10.08C10.1911 69.0722 10.2696 69.0927 10.3155 69.1337C10.3614 69.1748 10.3843 69.2292 10.3843 69.2968C10.3843 69.3354 10.3819 69.362 10.3771 69.3765V69.3982L6.63786 79.1304C6.61371 79.198 6.58472 79.2729 6.5509 79.355C6.51708 79.4372 6.47844 79.5133 6.43496 79.5833C6.39148 79.6534 6.34075 79.7125 6.28278 79.7608C6.22481 79.8092 6.15959 79.8333 6.08712 79.8333H4.29722C4.14746 79.8333 4.04842 79.7826 4.00011 79.6811ZM11.6887 69.4055C11.6887 69.304 11.7165 69.2231 11.7721 69.1627C11.8276 69.1023 11.9061 69.0722 12.0076 69.0722H19.2034C19.3097 69.0722 19.3918 69.1036 19.4498 69.1664C19.5078 69.2292 19.5368 69.3137 19.5368 69.42V71.2171C19.5368 71.2993 19.5078 71.3778 19.4498 71.4527C19.3918 71.5275 19.3073 71.565 19.1962 71.565H14.5004V73.3549H18.1237C18.2155 73.3549 18.2916 73.3766 18.3519 73.4201C18.4123 73.4636 18.4425 73.536 18.4425 73.6375V75.2028C18.4425 75.2704 18.416 75.3356 18.3628 75.3984C18.3097 75.4612 18.2324 75.4926 18.1309 75.4926H14.5004V77.3405H19.3701C19.5875 77.3405 19.6962 77.4516 19.6962 77.6738V79.5C19.6962 79.5483 19.6769 79.5918 19.6382 79.6304C19.6189 79.7657 19.5199 79.8333 19.3411 79.8333H12.0076C11.911 79.8333 11.8337 79.808 11.7757 79.7572C11.7177 79.7065 11.6887 79.628 11.6887 79.5217V69.4055ZM21.218 69.3838C21.218 69.2968 21.247 69.2219 21.3049 69.1591C21.3629 69.0963 21.4426 69.0649 21.5441 69.0649H23.689C23.7712 69.0649 23.8461 69.0939 23.9137 69.1519C23.9813 69.2098 24.0176 69.2871 24.0224 69.3838V77.268H28.008C28.095 77.268 28.1698 77.297 28.2326 77.355C28.2955 77.413 28.3269 77.4927 28.3269 77.5941V79.5C28.3269 79.5821 28.2991 79.657 28.2435 79.7246C28.188 79.7922 28.1095 79.8285 28.008 79.8333H21.5368C21.3242 79.8333 21.218 79.727 21.218 79.5145V69.3838ZM32.0226 74.4564C32.0226 74.8573 32.0902 75.2317 32.2255 75.5796C32.3608 75.9274 32.5504 76.2306 32.7944 76.489C33.0383 76.7475 33.327 76.9504 33.6603 77.0977C33.9937 77.2451 34.3608 77.3188 34.7618 77.3188C35.1628 77.3188 35.5312 77.2451 35.8669 77.0977C36.2027 76.9504 36.4925 76.7475 36.7365 76.489C36.9805 76.2306 37.1701 75.9274 37.3054 75.5796C37.4406 75.2317 37.5083 74.8573 37.5083 74.4564C37.5083 74.0602 37.4406 73.687 37.3054 73.3368C37.1701 72.9865 36.9805 72.6809 36.7365 72.4201C36.4925 72.1592 36.2027 71.9539 35.8669 71.8041C35.5312 71.6543 35.1628 71.5795 34.7618 71.5795C34.3608 71.5795 33.9937 71.6543 33.6603 71.8041C33.327 71.9539 33.0383 72.1592 32.7944 72.4201C32.5504 72.6809 32.3608 72.9865 32.2255 73.3368C32.0902 73.687 32.0226 74.0602 32.0226 74.4564ZM29.2254 74.4636C29.2254 73.9515 29.2906 73.46 29.4211 72.9889C29.5515 72.5179 29.7375 72.0759 29.9791 71.6628C30.2206 71.2497 30.5093 70.8741 30.845 70.536C31.1808 70.1978 31.554 69.9091 31.9646 69.67C32.3753 69.4309 32.8161 69.2449 33.2871 69.112C33.7582 68.9792 34.2497 68.9127 34.7618 68.9127C35.2691 68.9127 35.7594 68.9792 36.2329 69.112C36.7063 69.2449 37.1483 69.4309 37.559 69.67C37.9696 69.9091 38.344 70.1978 38.6822 70.536C39.0204 70.8741 39.309 71.2497 39.5482 71.6628C39.7873 72.0759 39.9733 72.5179 40.1062 72.9889C40.239 73.46 40.3054 73.9515 40.3054 74.4636C40.3054 74.9757 40.239 75.4673 40.1062 75.9383C39.9733 76.4093 39.7873 76.8489 39.5482 77.2572C39.309 77.6654 39.0204 78.0374 38.6822 78.3731C38.344 78.7089 37.9696 78.9975 37.559 79.2391C37.1483 79.4806 36.7063 79.6666 36.2329 79.7971C35.7594 79.9275 35.2691 79.9927 34.7618 79.9927C34.2497 79.9927 33.7582 79.9275 33.2871 79.7971C32.8161 79.6666 32.3753 79.4806 31.9646 79.2391C31.554 78.9975 31.1808 78.7089 30.845 78.3731C30.5093 78.0374 30.2206 77.6654 29.9791 77.2572C29.7375 76.8489 29.5515 76.4093 29.4211 75.9383C29.2906 75.4673 29.2254 74.9757 29.2254 74.4636ZM44.5664 71.594C44.6582 71.4587 44.7693 71.3246 44.8998 71.1918C45.0302 71.0589 45.1836 70.9406 45.3599 70.8367C45.5363 70.7328 45.7367 70.6483 45.9614 70.5831C46.186 70.5178 46.4409 70.4852 46.7259 70.4852C47.2766 70.4852 47.7682 70.5915 48.2006 70.8041C48.633 71.0166 49.0001 71.3065 49.3021 71.6737C49.604 72.0408 49.8335 72.4696 49.9905 72.9599C50.1475 73.4503 50.226 73.9733 50.226 74.5288V79.2753C50.226 79.4589 50.1861 79.5978 50.1064 79.692C50.0267 79.7862 49.8999 79.8333 49.726 79.8333H48.052C47.8443 79.8333 47.7018 79.7983 47.6245 79.7282C47.5472 79.6582 47.5085 79.5217 47.5085 79.3188V74.5288C47.5085 74.3211 47.4687 74.1278 47.389 73.9491C47.3092 73.7703 47.2018 73.6145 47.0665 73.4817C46.9312 73.3488 46.773 73.245 46.5918 73.1701C46.4107 73.0952 46.2186 73.0578 46.0157 73.0578C45.8418 73.0578 45.6715 73.0928 45.5049 73.1628C45.3382 73.2329 45.1884 73.3319 45.0556 73.46C44.9227 73.588 44.8116 73.7414 44.7222 73.9201C44.6329 74.0989 44.5809 74.2969 44.5664 74.5143V79.2971C44.5664 79.3792 44.5507 79.4613 44.5193 79.5435C44.4879 79.6256 44.4408 79.6884 44.378 79.7319C44.3152 79.7705 44.256 79.7971 44.2005 79.8116C44.1449 79.8261 44.0809 79.8333 44.0084 79.8333H42.3707C42.163 79.8333 42.0132 79.7826 41.9214 79.6811C41.8296 79.5797 41.7837 79.4444 41.7837 79.2753V73.3766V73.3259V71.1664V71.1302V68.4417C41.7837 68.2774 41.8296 68.1446 41.9214 68.0431C42.0132 67.9417 42.163 67.891 42.3707 67.891H44.0084C44.1196 67.891 44.2427 67.9296 44.378 68.0069C44.4408 68.0504 44.4879 68.1132 44.5193 68.1953C44.5507 68.2774 44.5664 68.3547 44.5664 68.4272V71.594ZM61.4364 79.2971C61.4364 79.3792 61.422 79.4577 61.393 79.5326C61.364 79.6075 61.3157 79.6666 61.248 79.7101C61.1949 79.7633 61.1321 79.7971 61.0596 79.8116C60.9872 79.8261 60.9244 79.8333 60.8712 79.8333H59.4436C59.3422 79.8333 59.2601 79.82 59.1973 79.7935C59.1345 79.7669 59.0837 79.7294 59.0451 79.6811C59.0064 79.6328 58.9738 79.5736 58.9472 79.5036C58.9207 79.4335 58.8929 79.3575 58.8639 79.2753L58.6538 78.7318C58.5233 78.8623 58.3808 79.0012 58.2262 79.1485C58.0716 79.2959 57.9013 79.4323 57.7153 79.5579C57.5293 79.6836 57.3276 79.7886 57.1102 79.8732C56.8928 79.9577 56.661 80 56.4146 80C55.9749 80 55.5534 79.9444 55.15 79.8333C54.7467 79.7222 54.3698 79.564 54.0196 79.3587C53.6693 79.1533 53.3517 78.907 53.0667 78.6195C52.7816 78.3321 52.5364 78.012 52.3311 77.6593C52.1258 77.3067 51.9676 76.9262 51.8565 76.518C51.7454 76.1098 51.6898 75.6834 51.6898 75.239C51.6898 74.5675 51.813 73.9431 52.0594 73.3657C52.3058 72.7884 52.6415 72.286 53.0667 71.8585C53.4918 71.4309 53.9918 71.0952 54.5667 70.8512C55.1416 70.6072 55.7575 70.4852 56.4146 70.4852C56.7141 70.4852 56.9895 70.5299 57.2407 70.6193C57.4919 70.7087 57.7202 70.8258 57.9255 70.9708C58.1308 71.1157 58.3168 71.2799 58.4835 71.4635C58.6501 71.6471 58.7987 71.8331 58.9291 72.0215L59.2117 71.1447C59.2601 71.0239 59.2999 70.9261 59.3313 70.8512C59.3627 70.7763 59.3965 70.7207 59.4328 70.6845C59.469 70.6483 59.5137 70.6241 59.5668 70.612C59.62 70.6 59.6949 70.5939 59.7915 70.5939H60.8712C60.9244 70.5939 60.9872 70.6012 61.0596 70.6157C61.1321 70.6302 61.1949 70.664 61.248 70.7171C61.3157 70.7703 61.364 70.8307 61.393 70.8983C61.422 70.9659 61.4364 71.0432 61.4364 71.1302V79.2971ZM54.2986 75.239C54.2986 75.5578 54.3481 75.8562 54.4471 76.1339C54.5462 76.4117 54.6875 76.6521 54.8711 76.855C55.0546 77.0579 55.2757 77.2185 55.5341 77.3369C55.7926 77.4552 56.0788 77.5144 56.3928 77.5144C56.7165 77.5144 57.0172 77.4552 57.295 77.3369C57.5728 77.2185 57.8144 77.0579 58.0197 76.855C58.225 76.6521 58.3856 76.4117 58.5016 76.1339C58.6175 75.8562 58.6755 75.5578 58.6755 75.239C58.6755 74.9298 58.6175 74.6351 58.5016 74.3549C58.3856 74.0747 58.225 73.8283 58.0197 73.6158C57.8144 73.4032 57.5728 73.2353 57.295 73.1121C57.0172 72.9889 56.7165 72.9273 56.3928 72.9273C56.0788 72.9273 55.7926 72.9889 55.5341 73.1121C55.2757 73.2353 55.0546 73.4032 54.8711 73.6158C54.6875 73.8283 54.5462 74.0747 54.4471 74.3549C54.3481 74.6351 54.2986 74.9298 54.2986 75.239ZM69.0671 76.9999C69.1347 76.9516 69.1987 76.9214 69.2591 76.9093C69.3195 76.8972 69.3666 76.8912 69.4004 76.8912C69.4826 76.8912 69.5574 76.9081 69.6251 76.9419C69.6927 76.9757 69.7628 77.0482 69.8352 77.1593L70.6468 78.384C70.671 78.4226 70.6939 78.4661 70.7157 78.5144C70.7374 78.5627 70.7483 78.6014 70.7483 78.6304C70.7483 78.7415 70.7133 78.8321 70.6432 78.9021C70.5732 78.9722 70.4971 79.0338 70.4149 79.0869C70.0188 79.3623 69.5852 79.5833 69.1142 79.75C68.6432 79.9166 68.1444 80 67.6178 80C67.183 80 66.7639 79.9444 66.3605 79.8333C65.9571 79.7222 65.5815 79.564 65.2336 79.3587C64.8858 79.1533 64.567 78.907 64.2771 78.6195C63.9872 78.3321 63.7409 78.012 63.538 77.6593C63.335 77.3067 63.1768 76.9262 63.0633 76.518C62.9498 76.1098 62.893 75.6834 62.893 75.239C62.893 74.7945 62.9498 74.367 63.0633 73.9563C63.1768 73.5457 63.335 73.1653 63.538 72.815C63.7409 72.4648 63.9872 72.1459 64.2771 71.8585C64.567 71.571 64.8858 71.3258 65.2336 71.1229C65.5815 70.92 65.9571 70.763 66.3605 70.6519C66.7639 70.5408 67.183 70.4852 67.6178 70.4852C68.1444 70.4852 68.6311 70.5553 69.078 70.6954C69.5248 70.8355 69.9439 71.0432 70.3352 71.3186L70.3135 71.2969C70.4198 71.3597 70.5043 71.4333 70.5671 71.5179C70.6299 71.6024 70.6613 71.7075 70.6613 71.8331C70.6613 71.9201 70.6323 72.0094 70.5744 72.1012L69.9294 73.1955C69.7942 73.4322 69.6299 73.5505 69.4367 73.5505C69.3932 73.5505 69.34 73.5397 69.2772 73.5179C69.2144 73.4962 69.1444 73.4587 69.0671 73.4056C68.8545 73.2655 68.6263 73.1508 68.3823 73.0614C68.1383 72.972 67.8786 72.9273 67.6033 72.9273C67.2989 72.9273 67.0187 72.9889 66.7627 73.1121C66.5066 73.2353 66.288 73.4032 66.1069 73.6158C65.9257 73.8283 65.7844 74.0747 65.6829 74.3549C65.5815 74.6351 65.5308 74.9298 65.5308 75.239C65.5308 75.5578 65.5815 75.8562 65.6829 76.1339C65.7844 76.4117 65.9257 76.6521 66.1069 76.855C66.288 77.0579 66.5066 77.2185 66.7627 77.3369C67.0187 77.4552 67.2989 77.5144 67.6033 77.5144C67.8786 77.5144 68.1371 77.4661 68.3787 77.3695C68.6202 77.2729 68.8497 77.1497 69.0671 76.9999ZM72.1251 68.4489C72.1251 68.3668 72.1276 68.2919 72.1324 68.2243C72.1372 68.1567 72.1578 68.0987 72.194 68.0504C72.2302 68.0021 72.287 67.9646 72.3643 67.9381C72.4416 67.9115 72.5503 67.8982 72.6904 67.8982H74.4223C74.5141 67.8982 74.5902 67.9139 74.6506 67.9453C74.711 67.9767 74.7593 68.0166 74.7955 68.0649C74.8317 68.1132 74.8559 68.1651 74.868 68.2207C74.88 68.2762 74.8861 68.3282 74.8861 68.3765V73.7389L77.4949 70.8403C77.6205 70.7002 77.7702 70.6302 77.9441 70.6302H80.1688C80.4345 70.6302 80.5674 70.734 80.5674 70.9418C80.5674 70.9949 80.5589 71.0384 80.542 71.0722C80.5251 71.106 80.4901 71.1543 80.437 71.2171L77.4586 74.3622L81.2051 79.1739H81.1906C81.2534 79.2367 81.2981 79.3007 81.3247 79.3659C81.3512 79.4311 81.3645 79.4903 81.3645 79.5435C81.3645 79.6546 81.3343 79.7307 81.2739 79.7717C81.2136 79.8128 81.123 79.8333 81.0022 79.8333H78.5529C78.4707 79.8333 78.3934 79.8019 78.321 79.7391C78.2485 79.6763 78.1688 79.5821 78.0818 79.4565L75.7122 76.1013L74.9078 76.9347V79.2753C74.9078 79.314 74.9018 79.3647 74.8897 79.4275C74.8776 79.4903 74.8535 79.5519 74.8172 79.6123C74.781 79.6727 74.7315 79.7246 74.6687 79.7681C74.6059 79.8116 74.5238 79.8333 74.4223 79.8333H72.6034C72.5165 79.8333 72.4416 79.8104 72.3788 79.7645C72.316 79.7186 72.2665 79.6666 72.2302 79.6087C72.194 79.5507 72.1674 79.4963 72.1505 79.4456C72.1336 79.3949 72.1251 79.3647 72.1251 79.355V68.4489ZM82.4805 77.7463C82.4805 77.6497 82.5071 77.5724 82.5602 77.5144C82.6133 77.4564 82.6931 77.4275 82.7993 77.4275H84.7124C84.7946 77.4275 84.8707 77.4564 84.9407 77.5144C85.0108 77.5724 85.0458 77.6497 85.0458 77.7463V79.5C85.0458 79.5869 85.018 79.6642 84.9624 79.7319C84.9069 79.7995 84.8236 79.8333 84.7124 79.8333H82.7993C82.5868 79.8333 82.4805 79.7222 82.4805 79.5V77.7463ZM92.6837 76.9999C92.7513 76.9516 92.8153 76.9214 92.8757 76.9093C92.9361 76.8972 92.9832 76.8912 93.017 76.8912C93.0991 76.8912 93.174 76.9081 93.2417 76.9419C93.3093 76.9757 93.3793 77.0482 93.4518 77.1593L94.2634 78.384C94.2876 78.4226 94.3105 78.4661 94.3323 78.5144C94.354 78.5627 94.3649 78.6014 94.3649 78.6304C94.3649 78.7415 94.3299 78.8321 94.2598 78.9021C94.1898 78.9722 94.1137 79.0338 94.0315 79.0869C93.6354 79.3623 93.2018 79.5833 92.7308 79.75C92.2597 79.9166 91.7609 80 91.2344 80C90.7996 80 90.3805 79.9444 89.9771 79.8333C89.5737 79.7222 89.1981 79.564 88.8502 79.3587C88.5024 79.1533 88.1835 78.907 87.8937 78.6195C87.6038 78.3321 87.3574 78.012 87.1545 77.6593C86.9516 77.3067 86.7934 76.9262 86.6799 76.518C86.5664 76.1098 86.5096 75.6834 86.5096 75.239C86.5096 74.7945 86.5664 74.367 86.6799 73.9563C86.7934 73.5457 86.9516 73.1653 87.1545 72.815C87.3574 72.4648 87.6038 72.1459 87.8937 71.8585C88.1835 71.571 88.5024 71.3258 88.8502 71.1229C89.1981 70.92 89.5737 70.763 89.9771 70.6519C90.3805 70.5408 90.7996 70.4852 91.2344 70.4852C91.7609 70.4852 92.2477 70.5553 92.6945 70.6954C93.1414 70.8355 93.5605 71.0432 93.9518 71.3186L93.9301 71.2969C94.0364 71.3597 94.1209 71.4333 94.1837 71.5179C94.2465 71.6024 94.2779 71.7075 94.2779 71.8331C94.2779 71.9201 94.2489 72.0094 94.191 72.1012L93.546 73.1955C93.4107 73.4322 93.2465 73.5505 93.0532 73.5505C93.0098 73.5505 92.9566 73.5397 92.8938 73.5179C92.831 73.4962 92.761 73.4587 92.6837 73.4056C92.4711 73.2655 92.2428 73.1508 91.9989 73.0614C91.7549 72.972 91.4952 72.9273 91.2199 72.9273C90.9155 72.9273 90.6353 72.9889 90.3793 73.1121C90.1232 73.2353 89.9046 73.4032 89.7234 73.6158C89.5423 73.8283 89.401 74.0747 89.2995 74.3549C89.1981 74.6351 89.1473 74.9298 89.1473 75.239C89.1473 75.5578 89.1981 75.8562 89.2995 76.1339C89.401 76.4117 89.5423 76.6521 89.7234 76.855C89.9046 77.0579 90.1232 77.2185 90.3793 77.3369C90.6353 77.4552 90.9155 77.5144 91.2199 77.5144C91.4952 77.5144 91.7537 77.4661 91.9952 77.3695C92.2368 77.2729 92.4663 77.1497 92.6837 76.9999ZM95.1548 75.239C95.1548 74.7945 95.2115 74.367 95.3251 73.9563C95.4386 73.5457 95.598 73.1653 95.8033 72.815C96.0086 72.4648 96.255 72.1459 96.5425 71.8585C96.8299 71.571 97.15 71.3258 97.5026 71.1229C97.8553 70.92 98.2358 70.763 98.644 70.6519C99.0522 70.5408 99.4785 70.4852 99.923 70.4852C100.58 70.4852 101.197 70.6072 101.774 70.8512C102.352 71.0952 102.854 71.4309 103.282 71.8585C103.709 72.286 104.048 72.7884 104.296 73.3657C104.545 73.9431 104.67 74.5675 104.67 75.239C104.67 75.6834 104.613 76.1098 104.499 76.518C104.386 76.9262 104.226 77.3067 104.021 77.6593C103.816 78.012 103.569 78.3321 103.282 78.6195C102.994 78.907 102.674 79.1533 102.322 79.3587C101.969 79.564 101.591 79.7222 101.188 79.8333C100.784 79.9444 100.363 80 99.923 80C99.4785 80 99.0522 79.9444 98.644 79.8333C98.2358 79.7222 97.8553 79.564 97.5026 79.3587C97.15 79.1533 96.8299 78.907 96.5425 78.6195C96.255 78.3321 96.0086 78.012 95.8033 77.6593C95.598 77.3067 95.4386 76.9262 95.3251 76.518C95.2115 76.1098 95.1548 75.6834 95.1548 75.239ZM97.7998 75.239C97.7998 75.5578 97.8493 75.8562 97.9483 76.1339C98.0473 76.4117 98.1874 76.6521 98.3686 76.855C98.5498 77.0579 98.7696 77.2185 99.0281 77.3369C99.2865 77.4552 99.5776 77.5144 99.9013 77.5144C100.215 77.5144 100.499 77.4552 100.753 77.3369C101.006 77.2185 101.221 77.0579 101.398 76.855C101.574 76.6521 101.709 76.4117 101.803 76.1339C101.898 75.8562 101.945 75.5578 101.945 75.239C101.945 74.9298 101.898 74.6351 101.803 74.3549C101.709 74.0747 101.574 73.8283 101.398 73.6158C101.221 73.4032 101.006 73.2353 100.753 73.1121C100.499 72.9889 100.215 72.9273 99.9013 72.9273C99.5776 72.9273 99.2865 72.9889 99.0281 73.1121C98.7696 73.2353 98.5498 73.4032 98.3686 73.6158C98.1874 73.8283 98.0473 74.0747 97.9483 74.3549C97.8493 74.6351 97.7998 74.9298 97.7998 75.239ZM106.3 70.7534C106.363 70.7002 106.429 70.6664 106.499 70.6519C106.569 70.6374 106.636 70.6302 106.699 70.6302H107.793C107.88 70.6302 107.955 70.6459 108.017 70.6773C108.08 70.7087 108.133 70.7509 108.177 70.8041C108.22 70.8572 108.255 70.9176 108.282 70.9852C108.308 71.0529 108.334 71.1229 108.358 71.1954L108.583 72.123C108.655 71.9732 108.743 71.8029 108.847 71.6121C108.951 71.4212 109.089 71.2425 109.26 71.0758C109.432 70.9092 109.647 70.7691 109.905 70.6555C110.164 70.542 110.486 70.4852 110.873 70.4852C111.491 70.4852 112.032 70.6169 112.496 70.8802C112.96 71.1435 113.341 71.4973 113.641 71.9418C113.733 71.792 113.858 71.6314 114.018 71.4599C114.177 71.2884 114.368 71.1302 114.59 70.9852C114.812 70.8403 115.067 70.7207 115.355 70.6265C115.642 70.5323 115.96 70.4852 116.307 70.4852C116.858 70.4852 117.35 70.5915 117.782 70.8041C118.215 71.0166 118.582 71.3065 118.884 71.6737C119.186 72.0408 119.415 72.4696 119.572 72.9599C119.729 73.4503 119.808 73.9733 119.808 74.5288V79.2753C119.808 79.4589 119.768 79.5978 119.688 79.692C119.608 79.7862 119.482 79.8333 119.308 79.8333H117.634C117.426 79.8333 117.283 79.7983 117.206 79.7282C117.129 79.6582 117.09 79.5217 117.09 79.3188V74.5288C117.09 74.3211 117.058 74.1278 116.992 73.9491C116.927 73.7703 116.837 73.6145 116.721 73.4817C116.605 73.3488 116.463 73.245 116.297 73.1701C116.13 73.0952 115.945 73.0578 115.742 73.0578C115.559 73.0578 115.385 73.094 115.221 73.1665C115.056 73.2389 114.911 73.3392 114.786 73.4672C114.66 73.5952 114.56 73.7498 114.485 73.931C114.41 74.1121 114.373 74.3114 114.373 74.5288V79.2753C114.373 79.4589 114.333 79.5978 114.253 79.692C114.173 79.7862 114.047 79.8333 113.873 79.8333H113.72H113.663H112.199C111.991 79.8333 111.848 79.7983 111.771 79.7282C111.694 79.6582 111.655 79.5217 111.655 79.3188V74.5288C111.655 74.3211 111.625 74.1278 111.565 73.9491C111.504 73.7703 111.417 73.6145 111.304 73.4817C111.19 73.3488 111.053 73.245 110.891 73.1701C110.729 73.0952 110.546 73.0578 110.344 73.0578C110.17 73.0578 109.999 73.0928 109.833 73.1628C109.666 73.2329 109.516 73.3319 109.383 73.46C109.251 73.588 109.139 73.7414 109.05 73.9201C108.961 74.0989 108.909 74.2969 108.894 74.5143V79.2971C108.894 79.3792 108.879 79.4613 108.847 79.5435C108.816 79.6256 108.769 79.6884 108.706 79.7319C108.643 79.7705 108.584 79.7971 108.528 79.8116C108.473 79.8261 108.409 79.8333 108.336 79.8333H106.699C106.491 79.8333 106.341 79.7826 106.249 79.6811C106.157 79.5797 106.112 79.4444 106.112 79.2753V71.1664C106.112 71.0746 106.132 70.9901 106.173 70.9128C106.214 70.8355 106.271 70.7751 106.343 70.7316L106.3 70.7534Z" fill="white"/>
</g>
<defs>
<clipPath id="clip0_1_142">
<rect width="120" height="80" fill="white"/>
</clipPath>
</defs>
</svg>
